<svg xmlns="http://www.w3.org/2000/svg" width="82" height="83" viewBox="0 0 82 83">
    <g fill="none" fill-rule="evenodd" transform="translate(1 1)">
        <circle cx="40" cy="40.083" r="40" fill="#FF9FAF"/>
        <circle cx="40" cy="40.083" r="30" fill="#FFF"/>
        <circle cx="40" cy="40.083" r="3" fill="#FF9FAF"/>
        <g fill="#FF2548" stroke="#FF2548" stroke-width=".2">
            <path d="M39.991 10.31c-16.42 0-29.78 13.36-29.78 29.782 0 16.42 13.36 29.78 29.78 29.78 16.421 0 29.781-13.36 29.781-29.78 0-16.421-13.36-29.781-29.78-29.781m0 61.263c-17.36 0-31.483-14.123-31.483-31.482 0-17.36 14.122-31.483 31.482-31.483s31.483 14.123 31.483 31.483-14.123 31.482-31.483 31.482"/>
            <path d="M39.992 19.625c-.47 0-.85-.38-.85-.85v-2.508c0-.47.38-.851.85-.851s.851.38.851.85v2.509c0 .47-.38.85-.85.85M63.816 40.942h-2.508c-.47 0-.85-.38-.85-.85s.38-.85.85-.85h2.508c.47 0 .851.38.851.85s-.38.85-.85.85M39.991 64.767c-.47 0-.85-.38-.85-.85v-2.509c0-.47.38-.85.85-.85s.851.38.851.85v2.508c0 .47-.38.851-.85.851M18.675 40.942h-2.508c-.47 0-.851-.381-.851-.851s.38-.851.85-.851h2.51c.47 0 .85.38.85.85s-.38.852-.85.852M56.838 57.789c-.218 0-.435-.083-.602-.25l-1.773-1.773c-.332-.332-.332-.87 0-1.203.332-.332.871-.332 1.203 0l1.774 1.773c.332.333.332.871 0 1.204-.167.166-.384.249-.602.249M24.92 25.868c-.219 0-.436-.083-.603-.249l-1.773-1.773c-.332-.333-.332-.871 0-1.203.333-.333.871-.333 1.203 0l1.774 1.773c.332.332.332.87 0 1.203-.167.166-.384.25-.602.25M23.145 57.789c-.218 0-.435-.083-.602-.25-.332-.332-.332-.87 0-1.203l1.774-1.773c.332-.332.87-.332 1.203 0 .332.332.332.87 0 1.203l-1.773 1.774c-.167.166-.384.249-.602.249M55.065 25.87c-.217 0-.435-.083-.601-.25-.333-.332-.333-.87 0-1.203l1.773-1.773c.332-.332.871-.332 1.203 0 .333.333.333.871 0 1.203l-1.773 1.774c-.166.166-.384.249-.602.249"/>
            <path d="M39.991 1.802c-21.113 0-38.29 17.176-38.29 38.29 0 21.112 17.177 38.29 38.29 38.29 21.114 0 38.291-17.178 38.291-38.29 0-21.114-17.177-38.29-38.29-38.29m0 78.28C17.94 80.083 0 62.144 0 40.093 0 18.04 17.94.1 39.991.1c22.052 0 39.993 17.94 39.993 39.991 0 22.052-17.941 39.992-39.993 39.992"/>
            <path d="M39.985 37.547c-.309 0-.595.05-.854.149-1.037.376-1.699 1.319-1.699 2.404 0 1.397 1.145 2.536 2.553 2.536 1.407 0 2.552-1.139 2.552-2.536 0-1.408-1.145-2.553-2.552-2.553m0 6.79c-2.346 0-4.255-1.9-4.255-4.237 0-1.782 1.129-3.389 2.807-3.999.44-.168.932-.256 1.448-.256 2.346 0 4.254 1.909 4.254 4.255 0 2.336-1.908 4.238-4.254 4.238"/>
            <path d="M38.828 37.752c-.347 0-.674-.215-.8-.56l-5.65-15.537c-.16-.442.068-.93.509-1.09.444-.162.93.067 1.09.508l5.65 15.537c.162.442-.067.93-.508 1.09-.096.035-.194.052-.29.052M53.599 40.95h-10.21c-.471 0-.852-.38-.852-.85s.381-.851.851-.851h10.21c.471 0 .852.38.852.85 0 .471-.38.852-.851.852"/>
        </g>
    </g>
</svg>
