<svg xmlns="http://www.w3.org/2000/svg" width="67" height="67" viewBox="0 0 67 67">
    <g fill="none" fill-rule="evenodd" stroke="#FF2548" stroke-linecap="round" stroke-linejoin="round" stroke-width="2">
        <path d="M32.539 21.146C28.32 15.274 23.913 8.807 21.559 0 16.17 20.176 0 28.071 0 44.66c0 11.225 10.165 20.02 21.56 20.02 5.938 0 11.537-2.385 15.543-6.259" transform="translate(1 1)"/>
        <path fill="#FF9FAF" d="M58.52 38.5c0 8.505-6.896 15.4-15.4 15.4-8.504 0-15.4-6.895-15.4-15.4s6.896-15.4 15.4-15.4c8.504 0 15.4 6.895 15.4 15.4z" transform="translate(1 1)"/>
        <path d="M42.726 48.45c.257-1.225.394-2.492.394-3.79 0-5.815-1.986-10.563-4.8-15.145M52.36 50.82L64.68 63.14M16.986 57.864C11.534 56.255 7.38 51.847 6.388 46.41" transform="translate(1 1)"/>
    </g>
</svg>
