<svg xmlns="http://www.w3.org/2000/svg" width="74" height="71" viewBox="0 0 74 71">
    <g fill="none" fill-rule="evenodd">
        <g fill="#FF9FAF">
            <path d="M0 31H11V41H0zM41 0H54V68H41zM23 41H34V59H23z" transform="translate(1 1) translate(18)"/>
        </g>
        <g stroke="#FF2548" stroke-width="2">
            <path d="M18.12 60.024L51.966 60.024 51.966 16.508 18.12 16.508zM18.12 31.013L51.966 31.013M18.12 40.684L51.966 40.684M18.12 50.354L40.684 50.354M29.402 60.024L29.402 31.013M40.684 60.024L40.684 31.013" transform="translate(1 1)"/>
            <path d="M47.13 13.284v-9.67c0-1.78-1.444-3.223-3.223-3.223H10.061l-9.67 9.67V64.86c0 1.779 1.444 3.223 3.223 3.223h40.293c1.78 0 3.224-1.444 3.224-3.223v-1.612" transform="translate(1 1)"/>
            <path d="M5.226 11.673L11.673 11.673 11.673 5.226M58.413 68.083L71.306 68.083 71.306.391 58.413.391zM64.86 10.061L71.306 10.061M64.86 16.508L71.306 16.508M64.86 24.567L71.306 24.567M64.86 32.625L71.306 32.625M64.86 40.684L71.306 40.684M64.86 50.354L71.306 50.354M64.86 60.024L71.306 60.024" transform="translate(1 1)"/>
        </g>
    </g>
</svg>
