<svg xmlns="http://www.w3.org/2000/svg" width="76" height="76" viewBox="0 0 76 76">
    <g fill="none" fill-rule="evenodd" stroke="#FF2548" stroke-width="2">
        <path d="M33.6 28.8h-24c-.78.008-1.512.35-2.091.875L.97 35.584C.286 36.202 0 36.324 0 36.8v4.8c0 .883.717 1.6 1.6 1.6H72c.883 0 1.6-.717 1.6-1.6v-4.8c0-.475-.286-.598-.971-1.216l-6.538-5.909c-.579-.525-1.31-.867-2.091-.875h-4.8M0 36.8L73.6 36.8" transform="translate(1 1)"/>
        <path stroke-linecap="round" stroke-linejoin="round" d="M46.4 30.4c5.92 0 11.2-4.707 11.2-10.514 0-8.58-9.654-12.42-11.2-19.886-1.546 7.466-11.2 11.306-11.2 19.886 0 5.807 5.28 10.514 11.2 10.514zM45.6 73.6c4.651 0 8.8-3.965 8.8-8.853 0-7.225-7.586-10.46-8.8-16.747-1.214 6.286-8.8 9.522-8.8 16.747 0 4.888 4.149 8.853 8.8 8.853zM19.2 22.4c4.229 0 8-3.467 8-7.747C27.2 8.33 20.302 5.5 19.2 0c-1.104 5.5-8 8.331-8 14.653 0 4.28 3.771 7.747 8 7.747zM18.527 47.988c-2.054 2.383-4.128 4.799-4.128 8.266 0 4.278 3.773 7.746 8 7.746 4.23 0 8-3.468 8-7.746 0-3.478-2.086-5.9-4.147-8.29" transform="translate(1 1)"/>
        <path fill="#FF9FAF" stroke-linecap="round" stroke-linejoin="round" d="M46.4 30.4c5.92 0 11.2-4.707 11.2-10.514 0-8.58-9.654-12.42-11.2-19.886-1.546 7.466-11.2 11.306-11.2 19.886 0 5.807 5.28 10.514 11.2 10.514z" transform="translate(1 1)"/>
    </g>
</svg>
