<?xml version="1.0" encoding="UTF-8"?>
<svg width="16px" height="15px" viewBox="0 0 16 15" version="1.1" xmlns="http://www.w3.org/2000/svg" xmlns:xlink="http://www.w3.org/1999/xlink">
    <title>LinkedIn</title>
    <g id="Page-1" stroke="none" stroke-width="1" fill="none" fill-rule="evenodd">
        <g id="Artboard" transform="translate(-170.000000, -185.000000)" fill="#FFFFFF" fill-rule="nonzero">
            <path d="M185.6624,199.469593 L182.301578,199.469593 L182.301578,194.609904 C182.301578,193.337887 181.775863,192.469516 180.619826,192.469516 C179.735588,192.469516 179.243847,193.055512 179.014964,193.620262 C178.929133,193.822971 178.942545,194.105346 178.942545,194.387721 L178.942545,199.469593 L175.613015,199.469593 C175.613015,199.469593 175.655931,190.861127 175.613015,190.07862 L178.942545,190.07862 L178.942545,191.55246 C179.139241,190.908042 180.203188,189.988331 181.901033,189.988331 C184.00747,189.988331 185.6624,191.33913 185.6624,194.247861 L185.6624,199.469593 L185.6624,199.469593 Z M172.245935,188.903974 L172.224477,188.903974 C171.151589,188.903974 170.456,188.186086 170.456,187.276111 C170.456,186.348433 171.172153,185.645593 172.266499,185.645593 C173.35995,185.645593 174.032293,186.346662 174.053751,187.273456 C174.053751,188.18343 173.35995,188.903974 172.245935,188.903974 L172.245935,188.903974 L172.245935,188.903974 Z M170.839558,190.07862 L173.803411,190.07862 L173.803411,199.469593 L170.839558,199.469593 L170.839558,190.07862 L170.839558,190.07862 Z" id="LinkedIn" transform="translate(178.059200, 192.557593) rotate(-360.000000) translate(-178.059200, -192.557593) "></path>
        </g>
    </g>
</svg>