<svg xmlns="http://www.w3.org/2000/svg" width="186" height="37" viewBox="0 0 186 37">
    <g fill="none" fill-rule="evenodd">
        <path fill="#FF2548" d="M75.345 35.801c-7.523 0-25.671-.884-34.337-8.971-5.309-4.954-8.144-10.802-10.423-15.5-1.355-2.796-3.042-6.275-4.147-6.319h-.005c-.303 0-.797.724-1.234 1.85-.734 1.895-1.27 4.706-1.836 7.683-1.713 9.002-4.047 21.33-15.269 21.193H0v-4.712H8.14l.125.001c6.65 0 8.537-7.203 10.47-17.363.609-3.193 1.183-6.21 2.072-8.504 1.277-3.294 3.22-4.932 5.791-4.857 3.954.158 5.84 4.047 8.228 8.972 2.108 4.346 4.73 9.756 9.397 14.111 9.398 8.77 33.982 7.655 34.229 7.643.039-.002.079-.003.118-.003h10.156l96.881.06-.003 4.712-106.977-.06c-.335.015-1.515.064-3.281.064"/>
        <path fill="#FFF" d="M73.092 3.284L73.092 24.313 68.285 24.313 68.285 8.872 66.074 19.832 61.598 19.832 58.942 8.872 58.942 24.313 54.135 24.313 54.135 3.284 61.465 3.284 63.598 12.747 65.761 3.284zM83.213 16.893L81.861 8.21l-1.382 8.682h2.734zm.54 3.575h-3.845l-.6 3.845H74.26l4.596-21.029h5.978l4.597 21.03h-5.077l-.601-3.846z"/>
        <path fill="#FFF" d="M99.073 24.313L96.729 17.524 94.356 24.313 89.039 24.313 94.026 13.498 89.52 3.284 94.867 3.284 96.699 9.112 98.562 3.284 103.91 3.284 99.404 13.498 104.42 24.313z"/>
        <path fill="#FFF" d="M103.247 16.863L111.538 16.863 111.538 13.408 103.247 13.408zM113.73 24.313L118.537 24.313 118.537 3.284 113.73 3.284zM126.256 12.988h.511c1.803 0 2.494-.842 2.494-3.035s-.721-3.033-2.494-3.033h-.51v6.068zm.782 3.515h-.782v7.81h-4.806V3.284h5.948c4.656 0 6.67 2.013 6.67 6.67 0 2.884-.812 4.746-2.674 5.738l3.004 8.621h-5.017l-2.343-7.81zM142.566 3.284L144.339 3.284 144.339 22.932 150.287 22.932 150.287 24.313 142.566 24.313zM158.998 17.524l-2.373-12.347-2.404 12.347h4.777zm.27 1.352h-5.317l-1.052 5.437h-1.862l4.506-21.029h2.133l4.506 21.03h-1.863l-1.051-5.438zM172.154 18.245c0-3.275-1.021-4.567-4.116-4.567h-1.772v9.314h1.953c2.794 0 3.935-1.382 3.935-4.747m-4.296-13.639h-1.592v7.87h1.682c2.884 0 3.636-1.17 3.636-3.994 0-2.614-1.142-3.876-3.726-3.876m5.979 13.79c0 4.115-1.683 5.917-5.408 5.917h-3.936V3.284h3.455c3.545 0 5.258 1.683 5.258 4.987 0 3.034-.932 4.416-2.524 4.776 1.953.421 3.155 1.953 3.155 5.348M176.088 17.164h1.653c-.33 4.295.96 6.038 3.094 6.038 2.013 0 3.034-1.352 3.003-3.515 0-2.373-.84-3.605-3.303-5.498-3.095-2.373-4.297-3.845-4.297-6.519 0-2.553 1.623-4.536 4.657-4.536 3.785 0 4.746 2.884 4.626 6.459H183.9c.06-2.704-.39-5.107-2.944-5.107-2.013 0-2.974 1.502-2.974 3.244 0 1.923 1.05 3.155 3.244 4.837 3.305 2.493 4.386 3.936 4.386 7.09 0 3.094-1.652 4.897-4.806 4.897-3.005 0-5.168-1.953-4.717-7.39"/>
    </g>
</svg>
