<svg width="586" height="101" viewBox="0 0 586 101" fill="none" xmlns="http://www.w3.org/2000/svg">
<path fill-rule="evenodd" clip-rule="evenodd" d="M237.744 100.801C214.006 100.801 156.742 98.2913 129.397 75.3294C112.645 61.2633 103.699 44.6587 96.5082 31.3194C92.2326 23.3806 86.9094 13.5025 83.4227 13.3775H83.4069C82.4508 13.3775 80.8921 15.4332 79.5131 18.6303C77.1971 24.0109 75.5058 31.9923 73.7198 40.4451C68.3146 66.005 60.9499 101.009 25.5399 100.62H0V87.2405H25.685L26.0795 87.2434C47.0629 87.2434 53.0172 66.7915 59.1166 37.9436C61.0382 28.8776 62.8494 20.3112 65.6546 13.7977C69.684 4.44491 75.815 -0.205957 83.9276 0.00699442C96.4041 0.455613 102.355 11.4979 109.89 25.4817C116.542 37.8215 124.815 53.1824 139.542 65.5478C169.196 90.449 246.769 87.2831 247.548 87.249C247.671 87.2434 247.797 87.2405 247.92 87.2405H279.967L585.666 87.4109L585.656 100.79L248.1 100.62C247.043 100.662 243.317 100.801 237.744 100.801Z" fill="#FF2548"/>
<path fill-rule="evenodd" clip-rule="evenodd" d="M230.63 8.47388V68.1827H215.462V24.3402L208.485 55.4595H194.361L185.981 24.3402V68.1827H170.812V8.47388H193.942L200.672 35.3427L207.497 8.47388H230.63ZM262.565 47.1147L258.299 22.4605L253.939 47.1118L262.565 47.1147ZM264.269 57.2654H252.137L250.244 68.1827H234.315L248.817 8.47388H267.68L282.186 68.1855H266.166L264.269 57.2654Z" fill="white"/>
<path fill-rule="evenodd" clip-rule="evenodd" d="M312.622 68.1827L305.226 48.9063L297.738 68.1827H280.961L296.697 37.4751L282.479 8.47388H299.351L305.131 25.0216L311.01 8.47388H327.885L313.667 37.4751L329.494 68.1827H312.622Z" fill="white"/>
<path fill-rule="evenodd" clip-rule="evenodd" d="M325.797 47.0281H351.958V37.2182H325.797V47.0281ZM358.875 68.1813H374.043V8.47253H358.875V68.1813ZM398.4 36.0256H400.012C405.701 36.0256 407.882 33.6349 407.882 27.4082C407.882 21.1815 405.607 18.7964 400.012 18.7964H398.403V36.0256H398.4ZM400.867 46.006H398.4V68.1813H383.235V8.47253H402.003C416.695 8.47253 423.05 14.1882 423.05 27.411C423.05 35.5997 420.488 40.8866 414.612 43.7033L424.091 68.1813H408.26L400.867 46.006ZM449.864 8.47253H455.459V64.2602H474.227V68.1813H449.864V8.47253ZM501.714 48.905L494.226 13.8474L486.641 48.905H501.714ZM502.566 52.7438H485.789L482.469 68.1813H476.594L490.812 8.47253H497.543L511.761 68.1842H505.882L502.566 52.7438ZM543.227 50.9521C543.227 41.6532 540.005 37.9848 530.239 37.9848H524.648V64.4305H530.81C539.626 64.4305 543.227 60.5066 543.227 50.9521ZM529.671 12.2262H524.648V34.5719H529.955C539.055 34.5719 541.428 31.2498 541.428 23.2315C541.428 15.8094 537.825 12.2262 529.671 12.2262ZM548.537 51.3809C548.537 63.0648 543.227 68.1813 531.473 68.1813H519.053V8.47253H529.955C541.141 8.47253 546.546 13.2512 546.546 22.6324C546.546 31.247 543.605 35.171 538.582 36.1932C544.744 37.3885 548.537 41.7413 548.537 51.3809ZM555.64 47.8828H560.856C559.815 60.0778 563.885 65.0268 570.619 65.0268C576.971 65.0268 580.192 61.188 580.094 55.0465C580.094 48.3087 577.444 44.8106 569.672 39.4357C559.906 32.6979 556.113 28.5184 556.113 20.9259C556.113 13.6771 561.235 8.04663 570.808 8.04663C582.751 8.04663 585.784 16.2353 585.405 26.386H580.29C580.479 18.7084 579.059 11.8854 571.001 11.8854C564.649 11.8854 561.616 16.1502 561.616 21.0963C561.616 26.5564 564.93 30.0545 571.853 34.8303C582.281 41.9088 585.692 46.006 585.692 54.9613C585.692 63.7463 580.479 68.8656 570.527 68.8656C561.045 68.8656 554.22 63.3204 555.643 47.8828" fill="white"/>
</svg>
