<svg width="302" height="52" viewBox="0 0 302 52" fill="none" xmlns="http://www.w3.org/2000/svg">
<path fill-rule="evenodd" clip-rule="evenodd" d="M122.266 51.8397C110.058 51.8397 80.6085 50.5488 66.5457 38.7401C57.9306 31.5062 53.3301 22.9669 49.6318 16.1068C47.433 12.0241 44.6954 6.94398 42.9023 6.87973H42.8942C42.4025 6.87973 41.6008 7.93693 40.8917 9.58113C39.7006 12.3482 38.8308 16.4529 37.9123 20.7999C35.1325 33.9448 31.345 51.9463 13.1345 51.7462H0V44.8657H13.2092L13.412 44.8671C24.2033 44.8671 27.2655 34.3492 30.4022 19.5135C31.3905 14.851 32.3219 10.4456 33.7646 7.09585C35.8368 2.28591 38.9898 -0.105919 43.1619 0.00359706C49.5783 0.234311 52.6388 5.91307 56.5139 13.1046C59.9347 19.4507 64.1895 27.3504 71.7629 33.7097C87.0135 46.5157 126.907 44.8876 127.308 44.8701C127.371 44.8671 127.436 44.8657 127.499 44.8657H143.98L301.194 44.9533L301.189 51.8338L127.592 51.7462C127.048 51.7681 125.132 51.8397 122.266 51.8397Z" fill="#FF2548"/>
<path fill-rule="evenodd" clip-rule="evenodd" d="M118.606 4.35791V35.0647H110.806V12.5176L107.218 28.5215H99.9543L95.6443 12.5176V35.0647H87.8438V4.35791H99.7385L103.2 18.1759L106.71 4.35791H118.606ZM135.03 24.2299L132.836 11.5509L130.593 24.2285L135.03 24.2299ZM135.906 29.4502H129.667L128.693 35.0647H120.502L127.96 4.35791H137.661L145.12 35.0662H136.882L135.906 29.4502Z" fill="black"/>
<path fill-rule="evenodd" clip-rule="evenodd" d="M160.767 35.0647L156.963 25.1513L153.113 35.0647H144.484L152.577 19.2725L145.265 4.35791H153.942L156.915 12.868L159.938 4.35791H168.616L161.304 19.2725L169.444 35.0647H160.767Z" fill="black"/>
<path fill-rule="evenodd" clip-rule="evenodd" d="M167.547 24.1854H181.001V19.1404H167.547V24.1854ZM184.558 35.064H192.359V4.35722H184.558V35.064ZM204.885 18.5271H205.714C208.64 18.5271 209.761 17.2976 209.761 14.0954C209.761 10.8931 208.591 9.66655 205.714 9.66655H204.886V18.5271H204.885ZM206.154 23.6598H204.885V35.064H197.086V4.35722H206.738C214.293 4.35722 217.562 7.29662 217.562 14.0968C217.562 18.3081 216.244 21.027 213.222 22.4755L218.097 35.064H209.956L206.154 23.6598ZM231.352 4.35722H234.229V33.0475H243.881V35.064H231.352V4.35722ZM258.017 25.1506L254.166 7.1214L250.265 25.1506H258.017ZM258.455 27.1248H249.827L248.12 35.064H245.098L252.41 4.35722H255.872L263.184 35.0655H260.16L258.455 27.1248ZM279.366 26.2034C279.366 21.4213 277.709 19.5347 272.686 19.5347H269.811V33.1351H272.98C277.514 33.1351 279.366 31.1171 279.366 26.2034ZM272.394 6.28762H269.811V17.7795H272.54C277.22 17.7795 278.441 16.071 278.441 11.9474C278.441 8.1304 276.588 6.28762 272.394 6.28762ZM282.097 26.4239C282.097 32.4327 279.366 35.064 273.321 35.064H266.934V4.35722H272.54C278.293 4.35722 281.073 6.81475 281.073 11.6393C281.073 16.0696 279.56 18.0876 276.977 18.6133C280.146 19.228 282.097 21.4665 282.097 26.4239ZM285.75 24.625H288.432C287.897 30.8966 289.99 33.4417 293.453 33.4417C296.719 33.4417 298.376 31.4675 298.326 28.3091C298.326 24.844 296.963 23.045 292.966 20.2808C287.944 16.8157 285.993 14.6663 285.993 10.7617C285.993 7.03378 288.627 4.13818 293.55 4.13818C299.692 4.13818 301.252 8.34944 301.057 13.5697H298.427C298.524 9.62128 297.794 6.11239 293.649 6.11239C290.383 6.11239 288.823 8.30563 288.823 10.8493C288.823 13.6573 290.527 15.4563 294.087 17.9124C299.451 21.5527 301.205 23.6598 301.205 28.2653C301.205 32.7832 298.524 35.4159 293.406 35.4159C288.529 35.4159 285.019 32.5641 285.751 24.625" fill="black"/>
</svg>
