<?xml version="1.0" encoding="UTF-8"?>
<svg width="933px" height="245px" viewBox="0 0 933 245" version="1.1" xmlns="http://www.w3.org/2000/svg" xmlns:xlink="http://www.w3.org/1999/xlink">
    <title>left no dot@2x</title>
    <g id="MAXIR-Website" stroke="none" stroke-width="1" fill="none" fill-rule="evenodd">
        <g id="left-no-dot" transform="translate(2.000000, 2.000000)">
            <g id="Group-51-Copy">
                <g id="Group-50">
                    <g id="Group-48" transform="translate(0.000000, 18.000000)">
                        <g id="Group-46" transform="translate(359.319994, 0.000000)"></g>
                        <g id="Group-47" transform="translate(213.719996, 73.479998)" fill="#222222" stroke="#FF9FAF" stroke-width="2.87999994">
                            <rect id="Rectangle-Copy-10" x="69.5999978" y="26.5999996" width="42" height="5.75999989"></rect>
                            <rect id="Rectangle-Copy-10" transform="translate(55.539998, 29.480000) scale(1, -1) translate(-55.539998, -29.480000) " x="16.0399981" y="5" width="79" height="48.959999"></rect>
                            <rect id="Rectangle-Copy-10" x="0" y="4.52000156" width="58" height="19"></rect>
                            <rect id="Rectangle-Copy-11" x="0" y="0.520001559" width="85" height="8"></rect>
                        </g>
                        <g id="Group-47-Copy" transform="translate(673.339983, 104.479998) scale(-1, 1) translate(-673.339983, -104.479998) translate(616.839983, 73.479998)" fill="#222222" stroke="#FF9FAF" stroke-width="2.87999994">
                            <rect id="Rectangle-Copy-10" x="1.15999638" y="26.5999996" width="110.879998" height="5.75999989"></rect>
                            <rect id="Rectangle-Copy-10" x="0.439996395" y="7.52000156" width="69.1199986" height="24.4799995"></rect>
                            <rect id="Rectangle-Copy-10" transform="translate(65.479995, 33.000000) scale(1, -1) translate(-65.479995, -33.000000) " x="35.4799945" y="5" width="60" height="56"></rect>
                            <rect id="Rectangle-Copy-11" x="0.839983234" y="0.520001559" width="112" height="8"></rect>
                        </g>
                        <rect id="Rectangle" stroke="#FF9FAF" stroke-width="2.87999994" fill="#5B2E35" x="14.4399964" y="0" width="200" height="205.919996"></rect>
                        <rect id="Rectangle" stroke="#FF9FAF" stroke-width="2.87999994" fill="#5B2E35" transform="translate(7.200000, 29.500000) scale(-1, 1) translate(-7.200000, -29.500000) " x="1.99840144e-13" y="15" width="14.3999997" height="29"></rect>
                        <rect id="Rectangle-Copy-6" stroke="#FF9FAF" stroke-width="2.87999994" fill="#5B2E35" transform="translate(7.200000, 77.000000) scale(-1, 1) translate(-7.200000, -77.000000) " x="3.99680289e-13" y="59" width="14.3999997" height="36"></rect>
                        <rect id="Rectangle-Copy-14" stroke="#FF9FAF" stroke-width="2.87999994" fill="#222222" x="729.399987" y="0" width="200" height="205.919996"></rect>
                    </g>
                    <g id="Group-49" transform="translate(325.319994, 0.000000)" fill="#222222" stroke="#FF9FAF" stroke-width="2.87999994">
                        <rect id="Rectangle-Copy-12" x="24.2799954" y="25" width="243" height="8"></rect>
                        <rect id="Rectangle-Copy-17" x="24.2799954" y="209" width="243" height="8"></rect>
                        <rect id="Rectangle-Copy-15" x="24.2799954" y="50.959998" width="243" height="140"></rect>
                        <g id="Group-6" transform="translate(44.680006, 0.959998)">
                            <rect id="Rectangle-Copy-15" transform="translate(21.000000, 25.000000) scale(1, -1) translate(-21.000000, -25.000000) " x="6" y="0" width="30" height="50"></rect>
                            <rect id="Rectangle-Copy-15" transform="translate(21.000000, 35.000000) scale(1, -1) translate(-21.000000, -35.000000) " x="3" y="20" width="36" height="30"></rect>
                            <rect id="Rectangle-Copy-15" transform="translate(21.000000, 43.500000) scale(1, -1) translate(-21.000000, -43.500000) " x="0" y="37" width="42" height="13"></rect>
                            <rect id="Rectangle-Copy-18" transform="translate(21.000000, 3.040002) scale(1, -1) translate(-21.000000, -3.040002) " x="4" y="0.0400020456" width="34" height="6"></rect>
                        </g>
                        <g id="Group-6" transform="translate(230.680006, 216.000000) scale(1, -1) translate(-230.680006, -216.000000) translate(209.680006, 191.000000)">
                            <rect id="Rectangle-Copy-15" transform="translate(21.000000, 25.000000) scale(1, -1) translate(-21.000000, -25.000000) " x="6" y="0" width="30" height="50"></rect>
                            <rect id="Rectangle-Copy-15" transform="translate(21.000000, 35.000000) scale(1, -1) translate(-21.000000, -35.000000) " x="3" y="20" width="36" height="30"></rect>
                            <rect id="Rectangle-Copy-15" transform="translate(21.000000, 43.500000) scale(1, -1) translate(-21.000000, -43.500000) " x="0" y="37" width="42" height="13"></rect>
                            <rect id="Rectangle-Copy-18" transform="translate(21.000000, 3.040002) scale(1, -1) translate(-21.000000, -3.040002) " x="4" y="0.0400020456" width="34" height="6"></rect>
                        </g>
                        <rect id="Rectangle-Copy-12" x="0" y="18" width="24.4799995" height="205.919996"></rect>
                        <rect id="Rectangle-Copy-13" x="267.279995" y="18" width="24.4799995" height="205.919996"></rect>
                    </g>
                </g>
            </g>
            <g id="Group-14" transform="translate(104.000000, 111.000000)">
                <g id="Group-51">
                    <g id="Group-5-Copy-8">
                        <g id="Group-52" transform="translate(0.440000, 0.440000)"></g>
                    </g>
                </g>
            </g>
        </g>
    </g>
</svg>